/* XPM */
static char *e9ad918483dd4d849cc1293718a310f2Q5iFu9s9NbazDHPc[] = {
/* columns rows colors chars-per-pixel */
"148 125 16 1 ",
"  c None",
". c #4A3821",
"X c #4A5900",
"o c #845929",
"O c #B56131",
"+ c #738231",
"@ c #94C300",
"# c #C6E310",
"$ c #CEFB31",
"% c #DE824A",
"& c #9C9A84",
"* c #C6BA8C",
"= c #F7EBAD",
"- c #EFFBA5",
"; c #EF8ACE",
": c #FFFBCE",
/* pixels */
"                                                                                                                                                    ",
"                                                                                                                                                    ",
"                                                                                                                                                    ",
"                                                                                                                                                    ",
"                                                                                                                                                    ",
"                                                                                                                                                    ",
"                                                                                                                                                    ",
"                                                                                                                                                    ",
"                                                                                                                                                    ",
"                                                                                                                                                    ",
"                                                                                                                                                    ",
"                                                                                                                                                    ",
"                                                                                                                                                    ",
"                                                                                                                                                    ",
"                                                                                                                                                    ",
"                                                                                                                                                    ",
"                                                                                                                                                    ",
"                                                                                                                                                    ",
"                                                                                                                                                    ",
"                                                                                                                                                    ",
"                                                                                                                                                    ",
"                                                                     ++++++++++++          ++++                                                     ",
"                                                                     ++++++++++++          ++++                                                     ",
"                                                                 ++++@@########@@++++    ++##@@++                                                   ",
"                                                                 ++++@@########@@++++    ++##@@++                                                   ",
"                                                       ++++++  ++@@$$----$$$$$$####@@++++++**@@++                                                   ",
"                                                       ++++++  ++@@$$----$$$$$$####@@++++++**@@++                                                   ",
"                                                     ++$$##**++@@$$----$$$$$$$$$$$$--$$##@@++++XX                                                   ",
"                                                     ++$$##**++@@$$----$$$$$$$$$$$$--$$##@@++++XX                                                   ",
"                                                   ++--##@@$$++##------$$$$$$$$$$$$$$----$$##@@++++                                                 ",
"                                                   ++--##@@$$++##------$$$$$$$$$$$$$$----$$##@@++++                                                 ",
"                                                   ++$$@@++--++##$$----$$$$$$$$$$@@++++@@$$$$&&##@@++                                               ",
"                                                   ++$$@@++--++##$$----$$$$$$$$$$@@++++@@$$$$&&##@@++                                               ",
"                                                   ++@@####@@##@@##--------$$$$@@++@@######--$$$$**++                                               ",
"                                                   ++@@####@@##@@##--------$$$$@@++@@######--$$$$**++                                               ",
"                                                     ++XXXX++@@$$@@##----$$$$##@@@@##@@@@##$$$$++&&                                                 ",
"                                                     ++XXXX++@@$$@@##----$$$$##@@@@##@@@@##$$$$++&&                                                 ",
"                                                         ++@@++@@######$$$$$$$$##$$@@@@##@@##@@::++                                                 ",
"                                                         ++@@++@@######$$$$$$$$##$$@@@@##@@##@@::++                                                 ",
"                                                         ++@@**++@@@@##$$$$--$$$$##@@--::++$$##::XX                                                 ",
"                                                         ++@@**++@@@@##$$$$--$$$$##@@--::++$$##::XX                                                 ",
"                                                       XX@@####@@@@**##$$$$----$$##@@--::XX$$$$##@@&&++                                             ",
"                                                       XX@@####@@@@**##$$$$----$$##@@--::XX$$$$##@@&&++                                             ",
"                                                     XX++**##$$######$$$$$$--$$$$$$##########--####**@@++                                           ",
"                                                     XX++**##$$######$$$$$$--$$$$$$##########--####**@@++                                           ",
"                                                   ..++@@##$$--$$$$$$$$$$$$$$$$$$$$$$$$$$**$$----$$##@@++                                           ",
"                                                   ..++@@##$$--$$$$$$$$$$$$$$$$$$$$$$$$$$**$$----$$##@@++                                           ",
"                                                 oooo++@@##$$----$$$$$$$$$$$$----$$$$$$##&&##$$##@@&&XX++                                           ",
"                                                 oooo++@@##$$----$$$$$$$$$$$$----$$$$$$##&&##$$##@@&&XX++                                           ",
"                                                 oo&&..&&##$$------$$$$$$$$----$$$$$$##@@@@@@&&++&&@@++                                             ",
"                                                 oo&&..&&##$$------$$$$$$$$----$$$$$$##@@@@@@&&++&&@@++                                             ",
"                                               ooOOOOoo..@@##$$----$$$$$$$$--$$$$$$##@@**############++                                             ",
"                                               ooOOOOoo..@@##$$----$$$$$$$$--$$$$$$##@@**############++                                             ",
"                                               oooo++oooooo@@##$$$$$$$$##$$$$$$$$##@@@@####$$--$$##@@@@++                                           ",
"                                               oooo++oooooo@@##$$$$$$$$##$$$$$$$$##@@@@####$$--$$##@@@@++                                           ",
"                                             oo++**##==##**oo@@##########$$$$$$####@@##++&&@@@@@@**##$$++                                           ",
"                                             oo++**##==##**oo@@##########$$$$$$####@@##++&&@@@@@@**##$$++                                           ",
"                                             ..**==$$======##oooo@@****@@$$$$$$$$##########$$--------##++                                           ",
"                                             ..**==$$======##oooo@@****@@$$$$$$$$##########$$--------##++                                           ",
"                                             ..$$==::::::======&&oo++&&&&##$$$$$$$$$$$$$$$$------$$##++                                             ",
"                                             ..$$==::::::======&&oo++&&&&##$$$$$$$$$$$$$$$$------$$##++                                             ",
"                                           XX**====::::::::::====&&oooo++@@##$$$$$$$$$$$$$$$$$$$$##@@++                                             ",
"                                           XX**====::::::::::====&&oooo++@@##$$$$$$$$$$$$$$$$$$$$##@@++                                             ",
"                                           ++@@====::::::::::::==**oo++..++@@####$$$$$$$$$$######@@++                                               ",
"                                           ++@@====::::::::::::==**oo++..++@@####$$$$$$$$$$######@@++                                               ",
"                                           ++**$$==::::::==##**==**..ooOO..++++&&&&@@@@@@@@&&&&++++                                                 ",
"                                           ++**$$==::::::==##**==**..ooOO..++++&&&&@@@@@@@@&&&&++++                                                 ",
"                                           ++$$==--::::====**##**&&ooXX&&OOooXX..oo....++++++..++                                                   ",
"                                           ++$$==--::::====**##**&&ooXX&&OOooXX..oo....++++++..++                                                   ",
"                                           ++**$$--::::====**++..oo++oooo++XXOO++XXoo..**==**XXoo                                                   ",
"                                           ++**$$--::::====**++..oo++oooo++XXOO++XXoo..**==**XXoo                                                   ",
"                                           ++##==--::::::==**oooo++OOoo%%&&OOoo&&ooXXOO==::$$&&oo++                                                 ",
"                                           ++##==--::::::==**oooo++OOoo%%&&OOoo&&ooXXOO==::$$&&oo++                                                 ",
"                                           ++**$$==--::::--**....oooo..ooooXX..XXoo**==::::::**oo@@++                                               ",
"                                           ++**$$==--::::--**....oooo..ooooXX..XXoo**==::::::**oo@@++                                               ",
"                                           ++@@##====--::==&&++++##==##==============::::::==**oo##++                                               ",
"                                           ++@@##====--::==&&++++##==##==============::::::==**oo##++                                               ",
"                                             ++**$$====**&&**##@@++##==##====$$::::::::$$==**&&oo##++                                               ",
"                                             ++**$$====**&&**##@@++##==##====$$::::::::$$==**&&oo##++                                               ",
"                                             XX++&&&&**@@####$$##@@++ooooooooooOOOOOO%%%%OOoooo##@@++                                               ",
"                                             XX++&&&&**@@####$$##@@++ooooooooooOOOOOO%%%%OOoooo##@@++                                               ",
"                                             XX&&@@########$$$$$$##++##==##======$$====$$##**oo@@++                                                 ",
"                                             XX&&@@########$$$$$$##++##==##======$$====$$##**oo@@++                                                 ",
"                                             XX@@########$$$$@@$$##++==##==============##**%%XX++                                                   ",
"                                             XX@@########$$$$@@$$##++==##==============##**%%XX++                                                   ",
"                                             ++@@####$$##$$$$++@@++OO%%%%%%%%%%%%%%%%%%OOOOXX                                                       ",
"                                             ++@@####$$##$$$$++@@++OO%%%%%%%%%%%%%%%%%%OOOOXX                                                       ",
"                                               ++@@##$$$$##$$##++&&++++++++XX....XXXX++++++XX                                                       ",
"                                               ++@@##$$$$##$$##++&&++++++++XX....XXXX++++++XX                                                       ",
"                                               ++++@@##&&@@##@@++@@@@&&++++XX..XXXX++++&&XX                                                         ",
"                                               ++++@@##&&@@##@@++@@@@&&++++XX..XXXX++++&&XX                                                         ",
"                                                   XX++++XX++++@@@@@@&&++XX....XX++++&&++XX                                                         ",
"                                                   XX++++XX++++@@@@@@&&++XX....XX++++&&++XX                                                         ",
"                                                         XX++@@@@@@&&++XX    ..XX++++&&XX                                                           ",
"                                                         XX++@@@@@@&&++XX    ..XX++++&&XX                                                           ",
"                                                           XX&&@@@@&&XX      ..XXXX++++XX                                                           ",
"                                                           XX&&@@@@&&XX      ..XXXX++++XX                                                           ",
"                                                         ....ooOO%%OO..      ..ooooOO%%OO..                                                         ",
"                                                         ....ooOO%%OO..      ..ooooOO%%OO..                                                         ",
"                                                         ..ooOO%%;;;;oo        ..oooooooooooo                                                       ",
"                                                         ..ooOO%%;;;;oo        ..oooooooooooo                                                       ",
"                                                           ..ooooOOOOOOoo                                                                           ",
"                                                           ..ooooOOOOOOoo                                                                           ",
"                                                                                                                                                    ",
"                                                                                                                                                    ",
"                                                                                                                                                    ",
"                                                                                                                                                    ",
"                                                                                                                                                    ",
"                                                                                                                                                    ",
"                                                                                                                                                    ",
"                                                                                                                                                    ",
"                                                                                                                                                    ",
"                                                                                                                                                    ",
"                                                                                                                                                    ",
"                                                                                                                                                    ",
"                                                                                                                                                    ",
"                                                                                                                                                    ",
"                                                                                                                                                    ",
"                                                                                                                                                    ",
"                                                                                                                                                    ",
"                                                                                                                                                    ",
"                                                                                                                                                    ",
"                                                                                                                                                    ",
"                                                                                                                                                    ",
"                                                                                                                                                    "
};
